<?xml version="1.0" encoding="UTF-8" standalone="no"?>
<svg width="34px" height="36px" viewBox="0 0 34 36" version="1.1" xmlns="http://www.w3.org/2000/svg" xmlns:xlink="http://www.w3.org/1999/xlink">
    <!-- Generator: sketchtool 39.1 (31720) - http://www.bohemiancoding.com/sketch -->
    <title>26044D75-92A4-49D2-9674-2ED111A3ECDB</title>
    <desc>Created with sketchtool.</desc>
    <defs>
        <filter x="-50%" y="-50%" width="200%" height="200%" filterUnits="objectBoundingBox" id="filter-1">
            <feOffset dx="0" dy="2" in="SourceAlpha" result="shadowOffsetOuter1"/>
            <feGaussianBlur stdDeviation="4.5" in="shadowOffsetOuter1" result="shadowBlurOuter1"/>
            <feColorMatrix values="0 0 0 0 0   0 0 0 0 0   0 0 0 0 0  0 0 0 0.12389606 0" type="matrix" in="shadowBlurOuter1" result="shadowMatrixOuter1"/>
            <feMerge>
                <feMergeNode in="shadowMatrixOuter1"/>
                <feMergeNode in="SourceGraphic"/>
            </feMerge>
        </filter>
    </defs>
    <g id="Symbols" stroke="none" stroke-width="1" fill="none" fill-rule="evenodd">
        <g id="Main-nav-reverse" transform="translate(-1087.000000, -10.000000)" fill="#FCFCFC">
            <g id="nav-Bar" filter="url(#filter-1)" transform="translate(225.000000, 17.000000)">
                <g id="Group-31" transform="translate(719.000000, 0.000000)">
                    <g id="share-alt" transform="translate(152.000000, 0.000000)">
                        <path d="M13.3333333,6.3 C12.6222222,6.3 12,6.57 11.5555556,7.02 L5.24444444,3.33 C5.33333333,3.15 5.33333333,2.88 5.33333333,2.7 C5.33333333,1.17 4.17777778,0 2.66666667,0 C1.15555556,0 0,1.17 0,2.7 C0,4.23 1.15555556,5.4 2.66666667,5.4 C3.37777778,5.4 4,5.13 4.44444444,4.68 L10.7555556,8.37 C10.6666667,8.55 10.6666667,8.82 10.6666667,9 C10.6666667,9.18 10.6666667,9.45 10.7555556,9.63 L4.44444444,13.41 C4,12.96 3.37777778,12.69 2.66666667,12.69 C1.24444444,12.69 0.0888888889,13.86 0.0888888889,15.3 C0.0888888889,16.74 1.24444444,17.91 2.66666667,17.91 C4.08888889,17.91 5.24444444,16.74 5.24444444,15.3 C5.24444444,15.12 5.24444444,14.94 5.15555556,14.67 L11.4666667,10.89 C11.9111111,11.34 12.5333333,11.61 13.2444444,11.61 C14.7555556,11.61 15.9111111,10.44 15.9111111,8.91 C15.9111111,7.38 14.8444444,6.3 13.3333333,6.3 L13.3333333,6.3 Z" id="Shape"/>
                    </g>
                </g>
            </g>
        </g>
    </g>
</svg>