<svg height="50" viewBox="0 0 44 50" width="44" xmlns="http://www.w3.org/2000/svg" xmlns:xlink="http://www.w3.org/1999/xlink"><mask id="a" fill="#fff"><path d="m.0003.0002h43.9837v49.4506h-43.9837z" fill="#fff" fill-rule="evenodd"/></mask><path d="m24.1123 41.3848v-12.171c1.685-.8 2.859-2.503 2.859-4.488 0-.138-.03-.268-.04-.403l10.547-6.089c.022.012.043.023.064.035v12.914c-1.309.744-2.203 2.135-2.203 3.744 0 .016.004.029.004.045l-11.168 6.447c-.02-.012-.042-.022-.063-.034m-2.12-32.739c.8 0 1.541-.234 2.183-.614l11.168 6.448c0 .015-.004.029-.004.045 0 .015.004.029.004.045l-10.517 6.071c-.805-.561-1.779-.895-2.834-.895s-2.029.334-2.834.895l-10.518-6.072c0-.015.005-.029.005-.044 0-.016-.005-.03-.005-.044l11.168-6.449c.643.38 1.384.614 2.184.614m-15.549 22.537v-12.914c.021-.013.042-.023.063-.035l10.546 6.089c-.01.135-.04.265-.04.403 0 1.985 1.175 3.688 2.86 4.488v12.171c-.021.012-.043.022-.064.034l-11.168-6.447c0-.016.005-.029.005-.045 0-1.609-.893-3-2.202-3.744m35.339 0v-12.914c1.308-.744 2.202-2.135 2.202-3.744 0-2.384-1.938-4.323-4.322-4.323-.8 0-1.54.233-2.184.614l-11.168-6.45c0-.013.004-.028.004-.043 0-2.383-1.938-4.323-4.322-4.323s-4.322 1.94-4.322 4.323c0 .015.004.03.004.044l-11.168 6.449c-.643-.381-1.383-.614-2.183-.614-2.384 0-4.323 1.939-4.323 4.323 0 1.609.894 3 2.203 3.744v12.914c-1.309.744-2.203 2.135-2.203 3.744 0 2.384 1.939 4.323 4.323 4.323.8 0 1.54-.233 2.184-.613l11.167 6.448c0 .016-.004.029-.004.044 0 2.384 1.938 4.322 4.322 4.322s4.322-1.938 4.322-4.322c0-.015-.004-.028-.004-.044l11.168-6.448c.644.38 1.384.613 2.184.613 2.384 0 4.322-1.939 4.322-4.323 0-1.609-.894-3-2.202-3.744" fill-rule="evenodd" mask="url(#a)"/></svg>